<?xml version="1.0" encoding="utf-8"?>
<!-- Generator: Adobe Illustrator 24.1.2, SVG Export Plug-In . SVG Version: 6.00 Build 0)  -->
<svg version="1.1" id="Layer_1" xmlns="http://www.w3.org/2000/svg" xmlns:xlink="http://www.w3.org/1999/xlink" x="0px" y="0px"
	 viewBox="0 0 512 512" style="enable-background:new 0 0 512 512;" xml:space="preserve">
<style type="text/css">
	.st0{fill:#31263E;}
	.st1{fill:#EE5622;}
</style>
<rect class="st0" width="512" height="512"/>
<g>
	<path class="st1" d="M77.9,133.6L77.9,133.6c11.4,0,20.6,9.2,20.6,20.6l0,0v203.6c0,11.4-9.2,20.6-20.6,20.6l0,0l0,0
		c-11.4,0-20.6-9.2-20.6-20.6l0,0V154.2C57.3,142.8,66.5,133.6,77.9,133.6L77.9,133.6z"/>
	<path class="st1" d="M315.4,133.6L315.4,133.6c11.4,0,20.6,9.2,20.6,20.6c0,0,0,0,0,0v203.6c0,11.4-9.2,20.6-20.6,20.6l0,0l0,0
		c-11.4,0-20.6-9.2-20.6-20.6l0,0V154.2C294.8,142.8,304,133.6,315.4,133.6L315.4,133.6z"/>
	<path class="st1" d="M196.6,313L196.6,313c11.4,0,20.6,9.2,20.6,20.6l0,0l0,0c0,11.4-9.2,20.6-20.6,20.6c0,0,0,0,0,0l0,0
		c-11.4,0-20.6-9.2-20.6-20.6l0,0l0,0C176,322.2,185.2,313,196.6,313z"/>
	<path class="st1" d="M412.3,230.6L412.3,230.6c11.4,0,20.6,9.2,20.6,20.6c0,0,0,0,0,0l0,0c0,11.4-9.2,20.6-20.6,20.6l0,0
		c-11.4,0-20.6-9.2-20.6-20.6c0,0,0,0,0,0l0,0C391.7,239.8,400.9,230.6,412.3,230.6z"/>
	<path class="st1" d="M434.1,145.7L434.1,145.7c11.4,0,20.6,9.2,20.6,20.6c0,0,0,0,0,0l0,0c0,11.4-9.2,20.6-20.6,20.6l0,0l0,0
		c-11.4,0-20.6-9.2-20.6-20.6c0,0,0,0,0,0l0,0C413.5,155,422.8,145.7,434.1,145.7L434.1,145.7z"/>
	<path class="st1" d="M434.1,332.3L434.1,332.3c11.4,0,20.6,9.2,20.6,20.6l0,0l0,0c0,11.4-9.2,20.6-20.6,20.6l0,0l0,0
		c-11.4,0-20.6-9.2-20.6-20.6l0,0l0,0C413.5,341.6,422.8,332.3,434.1,332.3L434.1,332.3z"/>
	<path class="st1" d="M196.6,157.9L196.6,157.9c11.4,0,20.6,9.2,20.6,20.6c0,0,0,0,0,0l0,0c0,11.4-9.2,20.6-20.6,20.6c0,0,0,0,0,0
		l0,0c-11.4,0-20.6-9.2-20.6-20.6l0,0C176,167.1,185.2,157.9,196.6,157.9C196.6,157.9,196.6,157.9,196.6,157.9z"/>
</g>
</svg>
