<svg xmlns="http://www.w3.org/2000/svg" viewBox="0 0 869.27 165"><defs><style>.cls-1{fill:#31263e;}.cls-2{fill:#ee5622;}</style></defs><g id="Layer_2" data-name="Layer 2"><g id="Layer_1-2" data-name="Layer 1"><rect class="cls-1" width="165" height="165"/><path class="cls-2" d="M25.05,43.1h0a6.64,6.64,0,0,1,6.64,6.64h0v65.6A6.64,6.64,0,0,1,25.05,122h0a6.63,6.63,0,0,1-6.63-6.64h0V49.74a6.63,6.63,0,0,1,6.63-6.64Z"/><path class="cls-2" d="M101.6,43.1h0a6.63,6.63,0,0,1,6.63,6.64h0v65.6A6.63,6.63,0,0,1,101.6,122h0A6.64,6.64,0,0,1,95,115.34h0V49.74a6.64,6.64,0,0,1,6.64-6.64Z"/><path class="cls-2" d="M63.32,100.91h0A6.64,6.64,0,0,1,70,107.55h0a6.64,6.64,0,0,1-6.64,6.64h0a6.65,6.65,0,0,1-6.64-6.64h0A6.65,6.65,0,0,1,63.32,100.91Z"/><path class="cls-2" d="M132.84,74.34h0A6.63,6.63,0,0,1,139.47,81h0a6.64,6.64,0,0,1-6.63,6.64h0A6.64,6.64,0,0,1,126.2,81h0A6.64,6.64,0,0,1,132.84,74.34Z"/><path class="cls-2" d="M139.86,47h0a6.64,6.64,0,0,1,6.64,6.64h0a6.64,6.64,0,0,1-6.64,6.64h0a6.63,6.63,0,0,1-6.63-6.64h0A6.64,6.64,0,0,1,139.86,47Z"/><path class="cls-2" d="M139.86,107.14h0a6.64,6.64,0,0,1,6.64,6.64h0a6.64,6.64,0,0,1-6.64,6.64h0a6.63,6.63,0,0,1-6.63-6.64h0a6.63,6.63,0,0,1,6.63-6.64Z"/><path class="cls-2" d="M63.32,50.91h0A6.64,6.64,0,0,1,70,57.55h0a6.64,6.64,0,0,1-6.64,6.64h0a6.66,6.66,0,0,1-6.64-6.64h0a6.64,6.64,0,0,1,6.64-6.64Z"/><path class="cls-2" d="M299.92,82.26c0,25.73-17.55,41.48-44.36,41.48H228.27V40.18h27.29C282.37,40.18,299.92,56.41,299.92,82.26Zm-44.36,30.3c19.71,0,30.29-11.3,30.29-30.3s-10.58-30.9-30.29-30.9H242v61.2Z"/><path class="cls-2" d="M342,124.82c-19,0-33.06-13.47-33.06-34.27S322.4,56.41,342,56.41c18.88,0,32.22,13.11,32.22,32.58a41.31,41.31,0,0,1-.48,6.74H323.12c1,10.94,8.77,17.55,18.87,17.55,8.42,0,13.11-4.09,15.63-9.26h14.79C368.68,115.56,358.22,124.82,342,124.82ZM323.24,84.66h36.67C359.67,74.44,351.61,68,341.39,68,332.14,68,324.68,74.2,323.24,84.66Z"/><path class="cls-2" d="M394.53,57.49l18.75,54,18.76-54h14.54l-25.24,66.25H405L379.86,57.49Z"/><path class="cls-1" d="M490.34,123.74H456.92V40.18h31.86c17.67,0,27.05,9.74,27.05,21.52,0,10.1-6.13,16.23-14.19,19.12,8.9,1.56,16.11,10.46,16.11,20.44C517.75,114,507.41,123.74,490.34,123.74Zm-2.76-72.38h-17V75.29h17c8.89,0,14.3-4.21,14.3-11.91S496.47,51.36,487.58,51.36Zm1.08,35.11h-18v26.09h18.52c9.26,0,14.91-4.69,14.91-12.75C504.05,91.52,497.8,86.47,488.66,86.47Z"/><path class="cls-1" d="M559.34,56.41c11.19,0,18.88,5.29,23,10.7V57.49h13.82v66.25H582.31v-9.86c-4.21,5.65-12.14,10.94-23.21,10.94-17.19,0-31-14.07-31-34.51S541.91,56.41,559.34,56.41Zm2.89,11.9c-10.22,0-20.08,7.7-20.08,22s9.86,22.61,20.08,22.61,20.08-8.06,20.08-22.37S572.57,68.31,562.23,68.31Z"/><path class="cls-1" d="M627.87,123.74H614.16V57.49h13.71v9.62c3.84-6.61,10.46-10.7,19.84-10.7V70.6h-3.49c-10.1,0-16.35,4.21-16.35,18.27Z"/><path class="cls-1" d="M687,56.41c11.18,0,18.88,5.29,23,10.7V57.49H723.8v66.25H710v-9.86c-4.21,5.65-12.15,10.94-23.21,10.94-17.19,0-31-14.07-31-34.51S669.58,56.41,687,56.41Zm2.89,11.9c-10.22,0-20.08,7.7-20.08,22s9.86,22.61,20.08,22.61S710,104.86,710,90.55,700.24,68.31,689.9,68.31Z"/><path class="cls-1" d="M801.82,123.74h-13.7V115.8c-4.33,5.65-11.78,8.9-19.6,8.9-15.51,0-27.29-9.74-27.29-28.25v-39h13.58V94.4c0,12.15,6.62,18.4,16.6,18.4s16.71-6.25,16.71-18.4V57.49h13.7Z"/><path class="cls-1" d="M843.9,124.82c-15.87,0-27-9.38-27.66-21.4h14.19c.48,5.41,5.65,9.86,13.23,9.86,7.93,0,12.14-3.37,12.14-7.94,0-13-38.47-5.53-38.47-29.81,0-10.58,9.85-19.12,25.48-19.12,15,0,24.89,8.06,25.61,21.28h-13.7c-.48-5.77-4.93-9.74-12.39-9.74s-11.18,3-11.18,7.46c0,13.34,37.39,5.89,38.12,29.81C869.27,116.4,859.53,124.82,843.9,124.82Z"/></g></g></svg>